<svg id="Layer_1" data-name="Layer 1" xmlns="http://www.w3.org/2000/svg" viewBox="0 0 474 624.9"><path d="M292.53,412.9c5.79-3.3,11.32-6.54,17-9.58a5.91,5.91,0,0,1,3.8-.2,96.81,96.81,0,0,0,35.27,2.4c12.78-1.5,23.66-7,33.07-14.93a113.87,113.87,0,0,0,12.17-11.77c6.24-7.15,12.14-14.56,18-22,7.27-9.22,11.27-19.95,15.95-30.38,7.21-16.06,10.61-32.86,11.67-50.1,1.07-17.46-3.27-34.09-10.44-50.06a235,235,0,0,0-12.93-24.57c-5-8.39-10.78-16.41-16.34-24.52-4.76-7-9.74-13.79-14.52-20.74-5.25-7.63-10.32-15.35-15.57-23-1.65-2.39-3.63-4.59-5.61-7.06-.55.63-1,1.08-1.36,1.58q-11.3,16.29-22.56,32.58c-5,7.27-10.19,14.48-15.12,21.82s-9.4,14.73-14.31,22c-6.95,10.24-11.51,21.46-16.31,32.64-6.84,16-7.39,32.4-5.49,49.07a110.62,110.62,0,0,0,4,20.4c4.08,13.24,8.08,26.59,15.05,38.85a195.18,195.18,0,0,0,14.4,22.48c8.23,10.72,18.88,19.34,30.4,27,2.9,1.93,6.15,3.41,9.24,5.09l-.06.68c-5.05,1.25-10.08,2.57-15.16,3.68a4.16,4.16,0,0,1-2.8-1,96.25,96.25,0,0,1-8-6.37,289.91,289.91,0,0,1-26-26.82c-6.08-7.24-10.5-15.2-15-23.24-7.23-12.91-11.51-26.75-15.64-40.68-6.27-21.14-6.94-42.44-1.28-63.63A150,150,0,0,1,293,206.26q6.66-11.52,13.87-22.78c5.24-8.2,10.73-16.26,16.2-24.33,2.88-4.26,6-8.39,8.9-12.63q10.35-15,20.64-30a3.12,3.12,0,0,1,.74-1c2-1.25,1.75-2.72.91-4.56-3.35-7.36-7-14.62-9.69-22.2-4.17-11.94-6.16-24.27-4.54-36.9,1-7.79,3.49-15.11,8.77-21.38,4-4.74,8.87-8.16,15.86-7.43A20.68,20.68,0,0,1,379,30.49c5.7,6.91,9.24,14.66,9.41,23.46.19,9.72,1.24,19.58-1.67,29.08s-6.48,18.52-10,28.32a11.84,11.84,0,0,1-1.53-1.59c-2.38-4.25-4.76-8.5-7-12.8a3,3,0,0,1,0-2.13,102.42,102.42,0,0,0,4.52-44.54c-.46-4-1.76-8-5.22-10.95-2.7-2.33-5-2.44-7.61.12-3.55,3.51-4.71,8-5.33,12.58a64.36,64.36,0,0,0,4.88,34.34,164.32,164.32,0,0,0,8,16.74c4.83,8.5,10,16.83,15.3,25.09,4.62,7.23,9.55,14.28,14.4,21.38,5,7.38,10.19,14.68,15.17,22.08s9.56,14.84,14.62,22.09c6.77,9.69,11.25,20.33,15.91,31,10.4,23.71,12.51,48.09,7.62,73.09a158,158,0,0,1-5.84,23c-4.14,11.54-8.58,23.06-15.21,33.63-4.68,7.47-9.64,14.82-15.06,21.84A105.66,105.66,0,0,1,399.94,392a361.72,361.72,0,0,1-28.53,22.27,45.84,45.84,0,0,1-28.4,8.37c-8.89-.33-17.84-.44-26.65-1.47C307.93,420.17,300.26,416.62,292.53,412.9Z" transform="translate(-126 -23)" fill="#314e46"/><path d="M446.79,225c-2.24-5-4.5-9.9-6.58-14.86a2.32,2.32,0,0,1,.91-2.17c5.57-2.72,11.22-5.32,16.87-7.91,2.47-1.13,5-2.18,7.49-3.27a128.48,128.48,0,0,0,36.93-24A58.85,58.85,0,0,0,517,150.89a27.68,27.68,0,0,0,1.65-8.16A10.4,10.4,0,0,0,517.4,138c-.74-1.61-2.53-1.82-4-1.23a24.81,24.81,0,0,0-5.77,3.1c-5.6,4.27-8.92,10.11-12.19,15.94-2.12,3.78-4.18,7.59-6.05,11.48-2.59,5.37-5,10.84-7.48,16.26-.26.56-.56,1.3-1.07,1.56-6.16,3.17-12.36,6.27-18.56,9.39l-.79-.29c.47-4.19.66-8.42,1.46-12.55a86,86,0,0,1,9.26-26,184.74,184.74,0,0,1,14.21-21.7,41.12,41.12,0,0,1,14.5-12.14c4.27-2.11,8.73-3.94,13.72-4,11-.08,22,6.22,23.94,19.4,1.39,9.29.51,18.25-4.3,26.5-4.07,6.95-8.51,13.78-14.8,19.3-5,4.4-9.84,9.07-15.34,12.9a152.22,152.22,0,0,1-19,11.08c-12.18,6.06-24.6,11.7-36.93,17.5A14.14,14.14,0,0,1,446.79,225Z" transform="translate(-126 -23)" fill="#314d45"/><path d="M265.89,194.93c-4.09-2.09-7.76-4-11.44-5.84-2-1-4.23-1.86-6.14-3.07a8.51,8.51,0,0,1-3.11-3.2c-3.38-7-6-14.43-9.93-21.21-4.19-7.29-7.63-15.17-14.35-21a23.38,23.38,0,0,0-5.77-3.53c-3.57-1.55-5.71-.31-6.05,3.3a27.89,27.89,0,0,0,3,15.5c5.15,10.16,13.22,18.06,22.53,25,.95.7,1.87,1.43,2.81,2.15,8.88,6.81,19.11,11.47,29.44,16,5.7,2.5,11.35,5.1,17,7.68,1.23.57,2.4,1.25,3.88,2-2.29,5.43-4.53,10.78-6.87,16.36-1.84-.75-3.44-1.3-4.93-2-8.84-4.22-17.63-8.52-26.47-12.73s-18.28-8.13-25.92-14.42c-6.32-5.2-12.45-10.63-18.47-16.14-7.61-7-12-15.68-15.4-25a27.34,27.34,0,0,1-1-17.44c1.89-6.44,4-13,11.14-16.61,8.62-4.34,17.16-3.79,25.49.5a48.19,48.19,0,0,1,15.9,12.85A115,115,0,0,1,262.53,175c1.35,4.84,2.33,9.78,3.32,14.7A30.67,30.67,0,0,1,265.89,194.93Z" transform="translate(-126 -23)" fill="#314d45"/><path d="M420.88,218.4c2.33,5.3,4.45,9.92,6.32,14.63.24.62-.64,1.83-1.3,2.52-6.33,6.67-12.75,13.26-19.08,19.93a31.46,31.46,0,0,0-2.77,3.79c-8.06,11.43-14.53,23.61-17.16,37.1a80.48,80.48,0,0,0,6,50.36c2.7,5.84,6.34,11.3,9.68,16.87.76,1.27,1.07,2.24,0,3.43-3,3.35-6,6.77-9.06,10.1a2,2,0,0,1-3.3-.12c-.38-.44-.77-.87-1.14-1.32-9.63-11.55-15.24-24.76-19.44-38.74-4.39-14.6-4.25-29.32-1.75-43.92a79.55,79.55,0,0,1,12.53-31.36,249.72,249.72,0,0,1,17.37-22.39c4.28-5,9.42-9.36,14.33-13.86C414.57,223.14,417.39,221.17,420.88,218.4Z" transform="translate(-126 -23)" fill="#314d45"/><path d="M307.25,218.52c3.82,3.44,7.48,6.46,10.79,9.79,6.55,6.59,12.89,13.37,19.35,20,5.85,6,9.65,13.22,13.43,20.43,13.51,25.85,13,52.4,3.62,79a95.45,95.45,0,0,1-14.8,26.6,46.67,46.67,0,0,1-4.23,4.19c-4.12-3.8-8.18-7.58-10.72-12.51a2.35,2.35,0,0,1,.27-1.94,130.3,130.3,0,0,0,13-26.5c5.71-15.71,6.25-31.61,1.16-47.34-3.21-9.92-7.4-19.72-13.85-28.35-4.76-6.38-9.9-12.53-15.19-18.53-2.61-2.95-6-5.29-8.94-8-.58-.53-1.25-1.51-1.1-2.12C301.27,228.18,303.73,223.54,307.25,218.52Z" transform="translate(-126 -23)" fill="#314d45"/><path d="M286,392.42c-6.45,2.35-12.31,4.73-18.36,6.54-1.58.47-4.05-.43-5.6-1.4-2.64-1.64-4.85-3.87-7.3-5.79-7.8-6.1-14-13.47-19.92-21.12-6.75-8.64-10.87-18.3-14.63-28.23-7.4-19.5-7.35-39.22-2.31-59.08,1.18-4.63,3.23-9.08,4.93-13.59.41-1.07,1-2.24,2.61-1.25,4.27,2.55,8.56,5.09,12.83,7.65,1.75,1.05,2.05,2.37,1.44,4.32-6,19.1-6.16,38.29,0,57.33a77.27,77.27,0,0,0,8.12,17.68,106.44,106.44,0,0,0,14.94,18.91c6.14,6,13.6,10.78,20.49,16.09C284,391,284.81,391.54,286,392.42Z" transform="translate(-126 -23)" fill="#314d45"/><path d="M441.23,392.27c1.53-.91,2.59-1.49,3.6-2.16a118.35,118.35,0,0,0,27.26-24.19c6.8-8.39,11.44-17.62,15.21-27.42,6.89-17.87,6.4-35.9,1.85-54.07-.45-1.83-1.46-3.53-2-5.35a2.16,2.16,0,0,1,.57-2c4-2.56,8-5.07,12.07-7.46,3.81-2.22,4.11-2.12,5.63,1.75a102.69,102.69,0,0,1,7.3,35.63,97.11,97.11,0,0,1-8,42.25c-4,9.09-8.88,17.93-15.41,25.76a151.45,151.45,0,0,1-12.41,13.2c-3.55,3.36-7.7,6.16-11.55,9.26-2.05,1.65-4.14,2.35-6.85,1.28C453,396.58,447.34,394.56,441.23,392.27Z" transform="translate(-126 -23)" fill="#314d45"/><path d="M460.76,373.94c-6.51-8.91-9.05-18.86-10.37-29.1A79,79,0,0,1,457,300.62,81.38,81.38,0,0,1,472,278a111.51,111.51,0,0,1,14.77-13.08,71.22,71.22,0,0,1,38.58-13.25c11.07-.57,22.15-1.07,33.23-1.37,7.12-.2,14-1.3,20.21-4.56a30,30,0,0,0,7.1-5.47c1.79-1.79,2.37-4.21.79-6.48s-4.09-2.2-6.55-1.87c-3.65.5-6.89,1.94-9,4.78a68.75,68.75,0,0,0-5.42,8.71c-.8,1.51-1.6,2.64-3.5,2.71q-4.28.16-8.56.26c-1.45,0-1.77-.78-1.48-1.92,3.84-15,14.89-26,32.73-24.75,9.72.66,16,6.69,15,14.8-.59,4.78-3.17,8.63-7.12,11.88s-8.3,6.5-13.59,7.74a98.94,98.94,0,0,1-16.29,2.64c-11,.68-22,.71-33,1.2a74,74,0,0,0-40.57,13.62c-5.51,3.92-9.91,8.63-14.27,13.52-8.24,9.26-12.48,20.16-16,31.49-3.49,11.1-2.49,22.29-1.26,33.41.52,4.73,3,9.29,4.78,13.86C464.26,370.2,464.37,370.16,460.76,373.94Z" transform="translate(-126 -23)" fill="#334f47"/><path d="M165.56,261.7c3.66,0,7.29-.09,10.89.1.54,0,1.48,1.45,1.42,2.16-.52,6.74-.66,13.56-2,20.17-2.34,11.65-5.53,23.14-8.19,34.74a90.53,90.53,0,0,0-1.29,32.19,39.1,39.1,0,0,0,7.06,17.74c8.45,11.81,19.93,20.27,34.21,25.35,6.29,2.24,12.65,4.31,19,6.46.87.3,1.73.63,3.09,1.14-5.29,3.43-10.21,6.67-15.19,9.82a2.83,2.83,0,0,1-2.09.07c-13.66-4.66-26.27-10.89-37.15-20.11a91.49,91.49,0,0,1-15-16.79c-6.57-9.08-8.61-19.27-9.08-29.89-.59-13.1,2.49-25.74,5.48-38.41q4.07-17.24,7.79-34.55C165.18,268.76,165.19,265.51,165.56,261.7Z" transform="translate(-126 -23)" fill="#314e46"/><path d="M497.87,401.72c8.31-2.91,16.32-5.47,24.11-8.52a77.51,77.51,0,0,0,20.87-12.38c14.53-11.9,19.58-27.16,18.86-44.56-.5-12-3.39-23.58-6.25-35.19-2.74-11.16-5.16-22.35-5.64-33.82,0-.56-.09-1.13-.11-1.69-.13-3.85-.13-3.84,4-3.62,1.29.07,2.59.08,3.89.1s2.57,0,3.72,0c.24.31.41.43.42.57,1.67,17.18,6.3,33.83,10.5,50.55a117.11,117.11,0,0,1,2.75,41.5c-1,9.23-5.11,17.59-11.13,24.89A92.17,92.17,0,0,1,550,393.2a101.25,101.25,0,0,1-35,18.17,4.12,4.12,0,0,1-2.91-.17C507.35,408.16,502.71,405,497.87,401.72Z" transform="translate(-126 -23)" fill="#314e46"/><path d="M176.21,248c-4.3,0-8,.18-11.63-.13-1-.08-2.18-1.58-2.57-2.65-1.33-3.68-3.87-6.58-6.61-9.33a13.6,13.6,0,0,0-10.42-4.1c-4.09.14-6.35,2.85-4.84,6.37a13.73,13.73,0,0,0,4.2,4.91c7.46,5.83,16.52,6.84,25.82,7.21,12.2.49,24.41,1,36.57,1.92a63.9,63.9,0,0,1,24.34,7,96.35,96.35,0,0,1,16.67,11.34c5.51,4.44,9.65,9.81,13.67,15.33,15.78,21.67,19.25,45.38,13,70.5-1.48,5.95-4.39,11.6-6.9,18-1.84-2.07-3.06-3.43-3.77-4.22,1.73-5.11,3.73-9.79,4.88-14.65,3.81-16.2,3-32.25-3.65-47.7-3.58-8.3-8-16.37-14.41-23.22-8.24-8.83-17.78-16.19-29.74-20.28-10.17-3.48-20.84-4.62-31.61-5-10-.33-20.11-.3-30.1-1.13-12.45-1-22.88-5.69-29.61-16.23-2.5-3.92-3.48-7.91-1.28-11.78,2.65-4.66,6.81-8.21,12.9-8.56,15.17-.87,25.23,4.27,31.54,18.17C173.84,242.5,174.94,245.11,176.21,248Z" transform="translate(-126 -23)" fill="#334f47"/><path d="M313.29,378.23c2.81,3.46,5.49,6.81,8.23,10.12,1,1.25.72,2.1-.59,3-7.41,5-14.54,10.37-22.25,14.91-10.6,6.24-22.52,9.27-34.94,10.55a133.57,133.57,0,0,1-35.16-1.23c-.83-.13-1.65-.38-3.27-.76,3-1.94,5.4-3.5,7.79-5.12a70.51,70.51,0,0,0,6.13-4.35,7.13,7.13,0,0,1,4.61-1.67c8.62-.47,17.32-.57,25.8-1.86a57.07,57.07,0,0,0,22.4-8.52c5.29-3.42,10.29-7.24,15.42-10.88Z" transform="translate(-126 -23)" fill="#324e46"/><path d="M414.88,377.28c1.74,1.86,2.92,3.26,4.25,4.52a82.22,82.22,0,0,0,23.25,15.14,81.23,81.23,0,0,0,38.84,6.79,10.5,10.5,0,0,1,7.39,1.8c3.82,2.77,7.76,5.38,11.64,8.08a13.87,13.87,0,0,1,1.42,1.47c-4.22.59-7.92,1.21-11.66,1.62-17.75,1.91-35.08.4-51.71-6a74,74,0,0,1-17.68-9.46c-4.67-3.43-9.47-6.71-14.28-10-1.37-.93-1.58-1.72-.56-2.95C408.66,384.91,411.5,381.41,414.88,377.28Z" transform="translate(-126 -23)" fill="#314e46"/><path d="M245.75,211.26c6.48,2.85,12.49,5.44,18.42,8.19a2.45,2.45,0,0,1,.87,2.28c-.74,2.5-1.74,5-2.72,7.39-4,10-8,20-12.17,29.94a57.72,57.72,0,0,1-4.13,7L228.64,256C237.71,242.42,242.39,227.29,245.75,211.26Z" transform="translate(-126 -23)" fill="#314e46"/><path d="M498.44,256.08l-17.5,10.18c-2.11-4.4-4-8.89-6.36-13.12-5.35-9.51-8.37-19.77-11.7-29.94-.74-2.27-.47-3.57,2.15-4.61,5.37-2.14,10.58-4.65,16.47-7.28C484.11,227.4,490.64,242,498.44,256.08Z" transform="translate(-126 -23)" fill="#314e46"/><path d="M370.58,418.86c5.51-3.79,10.48-7.23,15.5-10.62a4.07,4.07,0,0,1,2-.39c9.19-.21,18.33-.76,27.28-2.9a8.69,8.69,0,0,1,6.42,1.07c4,2.18,8.25,4,12.38,6,1.21.6,2.37,1.27,4.22,2.25a122.63,122.63,0,0,1-33.61,8.17C393.27,423.52,382,423,370.58,418.86Z" transform="translate(-126 -23)" fill="#314e46"/><path d="M476.17,392.75l3-2.53c7.27,5.33,14.35,10.84,21.79,15.91A188.78,188.78,0,0,0,546.69,429c10.53,3.57,21.15,6.9,32.11,10.47-4.54,1-39.94-9.79-54.85-16.58C504.23,413.93,486.16,401.76,476.17,392.75Z" transform="translate(-126 -23)" fill="#38544c"/><path d="M247.81,389.82l3.63,2.82C222.25,417.72,187.5,431.83,149.57,440l-.32-.66c2.92-1,5.82-2.08,8.75-3.06,9.27-3.09,18.61-6,27.83-9.24a167.09,167.09,0,0,0,31.4-15.23A210.93,210.93,0,0,0,247.81,389.82Z" transform="translate(-126 -23)" fill="#39544c"/><text transform="translate(0 561.54)" font-size="205" fill="#314e46" font-family="Perpetua-Bold, Perpetua" font-weight="700" letter-spacing="-0.05em">HDM</text></svg>